Coordinates
version=1
nRows=6
nColumns=63
inDegrees=yes

Units are S.I. units (second, meters, Newtons, ...)
If the header above contains a line with 'inDegrees', this indicates whether rotational values are in degrees (yes) or radians (no).

endheader
time	pelvis_tilt	pelvis_list	pelvis_rotation	pelvis_tx	pelvis_ty	pelvis_tz	hip_flexion_r	hip_adduction_r	hip_rotation_r	knee_angle_r	knee_angle_r_beta	ankle_angle_r	subtalar_angle_r	mtp_angle_r	hip_flexion_l	hip_adduction_l	hip_rotation_l	knee_angle_l	knee_angle_l_beta	ankle_angle_l	subtalar_angle_l	mtp_angle_l	L5_S1_Flex_Ext	L5_S1_Lat_Bending	L5_S1_axial_rotation	L4_L5_Flex_Ext	L4_L5_Lat_Bending	L4_L5_axial_rotation	L3_L4_Flex_Ext	L3_L4_Lat_Bending	L3_L4_axial_rotation	L2_L3_Flex_Ext	L2_L3_Lat_Bending	L2_L3_axial_rotation	L1_L2_Flex_Ext	L1_L2_Lat_Bending	L1_L2_axial_rotation	L1_T12_Flex_Ext	L1_T12_Lat_Bending	L1_T12_axial_rotation	Abs_r3	Abs_r2	Abs_r1	Abs_t1	Abs_t2	neck_flexion	neck_bending	neck_rotation	arm_flex_r	arm_add_r	arm_rot_r	elbow_flex_r	pro_sup_r	wrist_flex_r	wrist_dev_r	arm_flex_l	arm_add_l	arm_rot_l	elbow_flex_l	pro_sup_l	wrist_flex_l	wrist_dev_l
0.000000	-0.538777	-3.285257	92.551157	0.229112	0.924183	0.635099	0.818846	-0.525495	0.925881	4.204820	0.073388	23.702600	2.061368	0.000000	3.731573	-0.712084	-5.583370	7.171023	0.125158	24.519528	3.109269	0.000000	0.094490	-0.166011	0.916119	0.175477	-0.220795	0.973377	0.155237	-0.403640	0.973377	0.107993	-0.403640	0.801605	0.087743	-0.338531	0.744347	0.053992	-0.257152	0.687090	0.674932	-1.877955	5.095182	0.000000	0.000000	16.616280	1.929399	-4.984462	3.938320	-4.010007	40.159460	44.336319	33.628407	-2.348988	15.598863	13.813618	-8.159394	60.017399	36.352292	61.996373	4.709283	-8.097240
0.025641	-0.099327	-3.121207	91.947054	0.229296	0.924291	0.635532	1.173289	-0.103225	0.989492	5.103232	0.089068	24.019066	2.384997	0.000000	3.704551	-1.213891	-6.167174	7.720487	0.134748	24.605888	2.663335	0.000000	0.080053	-0.107831	1.091961	0.148667	-0.143416	1.160208	0.131519	-0.262181	1.160208	0.091493	-0.262181	0.955466	0.074337	-0.219890	0.887218	0.045742	-0.167031	0.818971	0.571811	-1.219811	6.073159	0.000000	0.000000	16.739399	1.740707	-5.455719	3.280106	-4.036863	37.557407	45.287007	35.388376	-2.997127	16.428637	14.528637	-7.552880	59.632154	35.913261	65.836687	5.373632	-8.155606
0.051282	0.226739	-3.011960	91.517726	0.229431	0.924362	0.635842	1.462346	0.202515	0.965360	5.816117	0.101510	24.280123	2.684243	0.000000	3.692691	-1.587648	-6.650143	8.123028	0.141774	24.701246	2.456842	0.000000	0.070184	-0.064804	1.218195	0.130338	-0.086190	1.294333	0.115305	-0.157565	1.294333	0.080213	-0.157565	1.065921	0.065173	-0.132149	0.989784	0.040103	-0.100382	0.913646	0.501316	-0.733080	6.775237	0.000000	0.000000	16.915931	1.599230	-5.783806	2.849497	-4.055852	35.692070	45.972871	36.689264	-3.505243	17.115020	15.036224	-7.123374	59.268459	35.609927	68.762216	5.887284	-8.182455
0.076923	0.451223	-2.950692	91.246073	0.229525	0.924399	0.636031	1.690299	0.404313	0.860802	6.361422	0.111028	24.490735	2.961601	0.000000	3.693377	-1.847199	-7.041490	8.394972	0.146520	24.805586	2.464227	0.000000	0.064456	-0.035357	1.299295	0.119701	-0.047025	1.380501	0.105895	-0.085968	1.380501	0.073667	-0.085968	1.136883	0.059854	-0.072101	1.055677	0.036830	-0.054769	0.974471	0.460402	-0.399970	7.226289	0.000000	0.000000	17.133412	1.503370	-5.981482	2.618560	-4.067787	34.486598	46.424779	37.557956	-3.890187	17.669517	15.355246	-6.854561	58.921243	35.435266	70.881043	6.268688	-8.175060
0.102564	0.585931	-2.930578	91.114993	0.229584	0.924406	0.636101	1.861429	0.514762	0.683136	6.757098	0.117934	24.655867	3.219565	0.000000	3.703989	-2.006385	-7.350430	8.552646	0.149272	24.918891	2.659929	0.000000	0.062443	-0.017918	1.339732	0.115963	-0.023831	1.423465	0.102587	-0.043566	1.423465	0.071366	-0.043566	1.172266	0.057984	-0.036538	1.088532	0.035680	-0.027755	1.004799	0.446024	-0.202692	7.451188	0.000000	0.000000	17.379377	1.451527	-6.061505	2.559361	-4.073476	33.864138	46.673601	38.021334	-4.168811	18.103630	15.504566	-6.730126	58.585437	35.382251	72.301253	6.536293	-8.130695
0.128205	0.642665	-2.944796	91.107385	0.229615	0.924387	0.636057	1.980016	0.546451	0.439678	7.021093	0.122541	24.780482	3.460629	0.000000	3.721912	-2.079047	-7.586177	8.612376	0.150314	25.041146	3.018387	0.000000	0.063719	-0.010914	1.343979	0.118332	-0.014515	1.427978	0.104683	-0.026535	1.427978	0.072824	-0.026535	1.175982	0.059169	-0.022255	1.091983	0.036409	-0.016905	1.007984	0.455135	-0.123456	7.474809	0.000000	0.000000	17.641361	1.442100	-6.036634	2.643968	-4.073731	33.747841	46.750204	38.106283	-4.357966	18.428863	15.503049	-6.733755	58.255971	35.443859	73.130930	6.708547	-8.046633
